<?xml version="1.0" encoding="UTF-8" standalone="no"?>
<!DOCTYPE svg PUBLIC "-//W3C//DTD SVG 1.1//EN" "http://www.w3.org/Graphics/SVG/1.1/DTD/svg11.dtd">
<svg width="100%" height="100%" viewBox="0 0 132 58" version="1.1" xmlns="http://www.w3.org/2000/svg" xmlns:xlink="http://www.w3.org/1999/xlink" xml:space="preserve" xmlns:serif="http://www.serif.com/" style="fill-rule:evenodd;clip-rule:evenodd;stroke-linejoin:round;stroke-miterlimit:2;">
    <g transform="matrix(1,0,0,1,-468,0)">
        <g id="Artboard2" transform="matrix(1,0,0,1,45.586175,164.999986)">
            <rect x="422.414" y="-165" width="131.172" height="57.092" style="fill:none;"/>
            <clipPath id="_clip1">
                <rect x="422.414" y="-165" width="131.172" height="57.092"/>
            </clipPath>
            <g clip-path="url(#_clip1)">
                <g transform="matrix(1.333333,0,0,1.333333,482.413825,-164.999972)">
                    <g transform="matrix(0.75,-0,-0,0.75,-45,-0.00001)">
                    </g>
                </g>
                <g transform="matrix(1,0,0,1,904.413825,-330.953883)">
                    <g transform="matrix(1.333333,0,0,1.333333,-780.741185,-325.635083)">
                        <g transform="matrix(1,0,0,1,223.335008,384.847996)">
                            <g>
                                <path d="M10.969,0L1.672,0L1.672,-15.5L10.969,-15.5L10.969,-14.266L3.125,-14.266L3.125,-8.375L9.875,-8.375L9.875,-7.141L3.125,-7.141L3.125,-1.234L10.969,-1.234L10.969,0Z" style="fill-rule:nonzero;"/>
                            </g>
                        </g>
                    </g>
                    <g transform="matrix(1.333333,0,0,1.333333,-780.741185,-325.635083)">
                        <g transform="matrix(1,0,0,1,234.876984,384.847996)">
                            <g>
                                <path d="M12.625,-16.156L12.625,0L11.172,0L11.172,-1.781L11.391,-2.875L10.953,-2.875C10.734,-2 10.238,-1.266 9.469,-0.672C8.707,-0.078 7.719,0.219 6.5,0.219C5.445,0.219 4.523,-0.023 3.734,-0.516C2.941,-1.004 2.328,-1.676 1.891,-2.531C1.453,-3.395 1.234,-4.367 1.234,-5.453C1.234,-6.535 1.453,-7.5 1.891,-8.344C2.328,-9.195 2.941,-9.867 3.734,-10.359C4.523,-10.859 5.445,-11.109 6.5,-11.109C7.719,-11.109 8.707,-10.812 9.469,-10.219C10.238,-9.625 10.734,-8.883 10.953,-8L11.391,-8L11.172,-9.094L11.172,-16.156L12.625,-16.156ZM11.172,-5.453C11.172,-6.492 10.969,-7.336 10.562,-7.984C10.156,-8.629 9.625,-9.102 8.969,-9.406C8.312,-9.719 7.594,-9.875 6.812,-9.875C6.039,-9.875 5.344,-9.719 4.719,-9.406C4.094,-9.102 3.598,-8.629 3.234,-7.984C2.867,-7.336 2.688,-6.492 2.688,-5.453C2.688,-4.41 2.867,-3.562 3.234,-2.906C3.598,-2.258 4.094,-1.781 4.719,-1.469C5.344,-1.164 6.039,-1.016 6.812,-1.016C7.594,-1.016 8.312,-1.164 8.969,-1.469C9.625,-1.781 10.156,-2.258 10.562,-2.906C10.969,-3.562 11.172,-4.41 11.172,-5.453Z" style="fill-rule:nonzero;"/>
                            </g>
                        </g>
                    </g>
                    <g transform="matrix(1.333333,0,0,1.333333,-780.741185,-325.635083)">
                        <g transform="matrix(1,0,0,1,248.947229,384.847996)">
                            <g>
                                <path d="M4.688,-12.75C4.27,-12.75 3.914,-12.895 3.625,-13.188C3.344,-13.477 3.203,-13.832 3.203,-14.25C3.203,-14.645 3.344,-14.988 3.625,-15.281C3.914,-15.57 4.27,-15.719 4.688,-15.719C5.094,-15.719 5.441,-15.57 5.734,-15.281C6.023,-14.988 6.172,-14.645 6.172,-14.25C6.172,-13.832 6.023,-13.477 5.734,-13.188C5.441,-12.895 5.094,-12.75 4.688,-12.75ZM8.703,0L1.234,0L1.234,-1.234L4.281,-1.234L4.281,-9.875L2.109,-9.656L2.109,-10.875L4.312,-11.109C4.812,-11.148 5.16,-11.051 5.359,-10.812C5.555,-10.582 5.656,-10.273 5.656,-9.891L5.656,-1.234L8.703,-1.234L8.703,0Z" style="fill-rule:nonzero;"/>
                            </g>
                        </g>
                    </g>
                    <g transform="matrix(1.333333,0,0,1.333333,-780.741185,-325.635083)">
                        <g transform="matrix(1,0,0,1,257.345341,384.847996)">
                            <g>
                                <path d="M4.375,-9.656L4.375,-0.984L8.172,-1.234L8.172,0L4.359,0.219C3.398,0.281 2.922,-0.191 2.922,-1.203L2.922,-9.656L0.578,-9.656L0.578,-10.875L2.922,-10.875L2.922,-13.844L4.375,-14.297L4.375,-10.875L7.734,-10.875L7.734,-9.656L4.375,-9.656Z" style="fill-rule:nonzero;"/>
                            </g>
                        </g>
                    </g>
                    <g transform="matrix(1.333333,0,0,1.333333,-780.741185,-325.635083)">
                        <g transform="matrix(1,0,0,1,265.875405,384.847996)">
                            <g>
                                <path d="M1.234,-5.453C1.234,-6.461 1.461,-7.395 1.922,-8.25C2.379,-9.113 3.035,-9.805 3.891,-10.328C4.742,-10.848 5.75,-11.109 6.906,-11.109C8.062,-11.109 9.062,-10.848 9.906,-10.328C10.75,-9.805 11.398,-9.113 11.859,-8.25C12.316,-7.395 12.547,-6.461 12.547,-5.453C12.547,-4.441 12.316,-3.504 11.859,-2.641C11.398,-1.773 10.75,-1.082 9.906,-0.562C9.062,-0.039 8.062,0.219 6.906,0.219C5.75,0.219 4.742,-0.039 3.891,-0.562C3.035,-1.082 2.379,-1.773 1.922,-2.641C1.461,-3.504 1.234,-4.441 1.234,-5.453ZM2.688,-5.453C2.688,-4.66 2.848,-3.926 3.172,-3.25C3.492,-2.582 3.961,-2.039 4.578,-1.625C5.203,-1.219 5.977,-1.016 6.906,-1.016C7.82,-1.016 8.594,-1.219 9.219,-1.625C9.844,-2.039 10.312,-2.582 10.625,-3.25C10.945,-3.926 11.109,-4.66 11.109,-5.453C11.109,-6.242 10.945,-6.973 10.625,-7.641C10.312,-8.305 9.844,-8.844 9.219,-9.25C8.594,-9.664 7.82,-9.875 6.906,-9.875C5.977,-9.875 5.203,-9.664 4.578,-9.25C3.961,-8.844 3.492,-8.305 3.172,-7.641C2.848,-6.973 2.688,-6.242 2.688,-5.453Z" style="fill-rule:nonzero;"/>
                            </g>
                        </g>
                    </g>
                    <g transform="matrix(1.333333,0,0,1.333333,-780.741185,-325.635083)">
                        <g transform="matrix(1,0,0,1,279.440001,384.847996)">
                            <g>
                                <path d="M3.125,0L1.672,0L1.672,-9.672C1.672,-10.672 2.145,-11.148 3.094,-11.109L8.922,-10.875L8.922,-9.656L3.125,-9.875L3.125,0Z" style="fill-rule:nonzero;"/>
                            </g>
                        </g>
                    </g>
                    <g transform="matrix(1.333333,0,0,1.333333,-780.741185,-325.635083)">
                        <g transform="matrix(1,0,0,1,223.335008,402.479629)">
                            <g>
                                <path d="M4.172,-13.953C6.047,-13.984 7.484,-13.742 8.484,-13.234C9.492,-12.734 10,-11.984 10,-10.984C10,-10.492 9.828,-10.035 9.484,-9.609C9.148,-9.191 8.719,-8.816 8.188,-8.484C7.664,-8.16 7.109,-7.875 6.516,-7.625C5.922,-7.375 5.352,-7.164 4.812,-7C4.27,-6.832 3.82,-6.711 3.469,-6.641C3.457,-6.055 3.422,-5.469 3.359,-4.875C3.305,-4.289 3.254,-3.711 3.203,-3.141C3.191,-2.773 3.188,-2.375 3.188,-1.938C3.195,-1.5 3.203,-1.16 3.203,-0.922C3.203,-0.586 3.094,-0.336 2.875,-0.172C2.656,-0.016 2.422,0.062 2.172,0.062C1.773,0.062 1.484,-0.07 1.297,-0.344C1.117,-0.625 1.031,-1.016 1.031,-1.516C1.031,-1.691 1.047,-1.973 1.078,-2.359C1.109,-2.754 1.141,-3.191 1.172,-3.672C1.211,-4.148 1.25,-4.617 1.281,-5.078C1.32,-5.535 1.348,-5.914 1.359,-6.219C1.391,-6.789 1.398,-7.414 1.391,-8.094C1.391,-8.781 1.375,-9.445 1.344,-10.094C1.344,-10.27 1.328,-10.52 1.297,-10.844C1.266,-11.164 1.234,-11.488 1.203,-11.812C1.18,-12.133 1.156,-12.391 1.125,-12.578C1.102,-12.766 1.094,-12.805 1.094,-12.703C1.113,-13.117 1.254,-13.41 1.516,-13.578C1.773,-13.742 2.133,-13.848 2.594,-13.891C3.062,-13.93 3.586,-13.953 4.172,-13.953ZM1.094,-12.703L1.094,-12.688L1.094,-12.703Z" style="fill-rule:nonzero;"/>
                            </g>
                        </g>
                    </g>
                    <g transform="matrix(1.333333,0,0,1.333333,-780.741185,-325.635083)">
                        <g transform="matrix(1,0,0,1,233.821751,402.479629)">
                            <g>
                                <path d="M4.359,-0.047C4.109,-0.047 3.863,-0.082 3.625,-0.156C3.395,-0.227 3.195,-0.301 3.031,-0.375C2.344,-0.727 1.879,-1.219 1.641,-1.844C1.398,-2.477 1.266,-3.094 1.234,-3.688C1.172,-4.727 1.129,-5.77 1.109,-6.812C1.098,-7.863 1.094,-8.91 1.094,-9.953L1.094,-13.734C1.094,-14.047 1.109,-14.375 1.141,-14.719C1.18,-15.062 1.27,-15.359 1.406,-15.609C1.539,-15.859 1.742,-15.984 2.016,-15.984C2.535,-15.984 2.93,-15.785 3.203,-15.391C3.473,-14.992 3.609,-14.547 3.609,-14.047C3.609,-13.691 3.586,-13.348 3.547,-13.016C3.516,-12.68 3.5,-12.395 3.5,-12.156C3.5,-11.57 3.492,-10.984 3.484,-10.391C3.473,-9.797 3.469,-9.195 3.469,-8.594C3.469,-7.469 3.484,-6.461 3.516,-5.578C3.555,-4.703 3.602,-4.02 3.656,-3.531C3.707,-3.039 3.75,-2.797 3.781,-2.797C3.789,-2.797 3.805,-2.766 3.828,-2.703C3.859,-2.641 3.859,-2.656 3.828,-2.75C3.941,-2.539 4.086,-2.41 4.266,-2.359C4.453,-2.305 4.645,-2.27 4.844,-2.25C5.039,-2.227 5.219,-2.176 5.375,-2.094C5.531,-2.02 5.625,-1.844 5.656,-1.562C5.676,-1.375 5.691,-1.238 5.703,-1.156C5.711,-1.07 5.719,-1.004 5.719,-0.953C5.719,-0.629 5.578,-0.395 5.297,-0.25C5.016,-0.113 4.703,-0.047 4.359,-0.047Z" style="fill-rule:nonzero;"/>
                            </g>
                        </g>
                    </g>
                    <g transform="matrix(1.333333,0,0,1.333333,-780.741185,-325.635083)">
                        <g transform="matrix(1,0,0,1,240.087413,402.479629)">
                            <g>
                                <path d="M3.5,-0.047C2.539,-0.172 1.805,-0.539 1.297,-1.156C0.797,-1.781 0.547,-2.457 0.547,-3.188C0.547,-3.832 0.711,-4.461 1.047,-5.078C1.391,-5.691 1.758,-6.227 2.156,-6.688C2.531,-7.125 2.941,-7.504 3.391,-7.828C3.836,-8.16 4.375,-8.488 5,-8.812C5.625,-9.133 6.383,-9.504 7.281,-9.922C7.133,-10.43 6.891,-10.848 6.547,-11.172C6.203,-11.504 5.828,-11.723 5.422,-11.828C5.016,-11.93 4.629,-11.895 4.266,-11.719C3.91,-11.551 3.641,-11.223 3.453,-10.734C3.379,-10.535 3.242,-10.379 3.047,-10.266C2.848,-10.16 2.645,-10.109 2.438,-10.109C2.176,-10.109 1.922,-10.203 1.672,-10.391C1.43,-10.586 1.312,-10.848 1.312,-11.172C1.312,-11.461 1.391,-11.754 1.547,-12.047C1.711,-12.336 1.91,-12.609 2.141,-12.859C2.367,-13.117 2.578,-13.316 2.766,-13.453C3.109,-13.703 3.457,-13.879 3.812,-13.984C4.176,-14.086 4.539,-14.141 4.906,-14.141C5.594,-14.141 6.25,-13.969 6.875,-13.625C7.508,-13.289 8.062,-12.844 8.531,-12.281C9,-11.719 9.312,-11.082 9.469,-10.375C9.594,-9.82 9.66,-9.352 9.672,-8.969C9.68,-8.582 9.688,-8.242 9.688,-7.953C9.688,-7.016 9.625,-6.066 9.5,-5.109C9.383,-4.16 9.289,-3.211 9.219,-2.266C9.195,-1.973 9.156,-1.691 9.094,-1.422C9.039,-1.16 8.867,-0.953 8.578,-0.797C8.379,-0.703 8.227,-0.66 8.125,-0.672C8.031,-0.691 7.773,-0.734 7.359,-0.797C7.336,-0.773 7.301,-0.754 7.25,-0.734C7.207,-0.711 7.164,-0.688 7.125,-0.656C6.445,-0.375 5.816,-0.188 5.234,-0.094C4.648,0 4.07,0.012 3.5,-0.047Z" style="fill-rule:nonzero;"/>
                            </g>
                        </g>
                    </g>
                    <g transform="matrix(1.333333,0,0,1.333333,-780.741185,-325.635083)">
                        <g transform="matrix(1,0,0,1,250.332329,402.479629)">
                            <g>
                                <path d="M2.469,5.234C2.094,5.234 1.711,5.172 1.328,5.047C0.941,4.93 0.613,4.754 0.344,4.516C0.07,4.285 -0.062,4.008 -0.062,3.688C-0.062,3.602 -0.047,3.516 -0.016,3.422C0.004,3.328 0.031,3.242 0.062,3.172C0.27,2.828 0.535,2.656 0.859,2.656C0.941,2.656 1.133,2.691 1.438,2.766C1.738,2.836 2.145,2.922 2.656,3.016C2.906,2.984 3.172,2.906 3.453,2.781C3.742,2.656 4.004,2.492 4.234,2.297C4.473,2.109 4.645,1.93 4.75,1.766C4.906,1.453 5.082,1.148 5.281,0.859C5.477,0.578 5.648,0.297 5.797,0.016L6.328,-1.125L5.688,-1.828L2.266,-6.984C2.117,-7.191 1.988,-7.406 1.875,-7.625C1.77,-7.844 1.719,-8.062 1.719,-8.281C1.719,-8.602 1.844,-8.848 2.094,-9.016C2.344,-9.191 2.562,-9.281 2.75,-9.281C3.176,-9.281 3.578,-9 3.953,-8.438C4.492,-7.594 5.039,-6.75 5.594,-5.906C6.156,-5.07 6.719,-4.238 7.281,-3.406C7.477,-4.02 7.68,-4.641 7.891,-5.266C8.098,-5.898 8.273,-6.535 8.422,-7.172C8.504,-7.492 8.582,-7.816 8.656,-8.141C8.727,-8.473 8.844,-8.754 9,-8.984C9.164,-9.211 9.422,-9.328 9.766,-9.328C9.816,-9.328 9.867,-9.32 9.922,-9.312C9.973,-9.301 10.031,-9.289 10.094,-9.281C10.602,-9.145 10.859,-8.773 10.859,-8.172C10.859,-7.898 10.82,-7.613 10.75,-7.312C10.676,-7.02 10.609,-6.773 10.547,-6.578C10.422,-6.047 10.234,-5.367 9.984,-4.547C9.742,-3.723 9.445,-2.844 9.094,-1.906C8.75,-0.969 8.352,-0.066 7.906,0.797C7.469,1.672 6.992,2.43 6.484,3.078C5.941,3.754 5.316,4.281 4.609,4.656C3.91,5.039 3.195,5.234 2.469,5.234Z" style="fill-rule:nonzero;"/>
                            </g>
                        </g>
                    </g>
                    <g transform="matrix(1.333333,0,0,1.333333,-780.741185,-325.635083)">
                        <g transform="matrix(1,0,0,1,261.676481,402.479629)">
                            <g>
                                <path d="M9.25,-3.172C9.27,-2.648 9.285,-2.125 9.297,-1.594C9.316,-1.062 9.328,-0.516 9.328,0.047C9.328,1.117 9.25,2.172 9.094,3.203C8.938,4.242 8.602,5.234 8.094,6.172C7.633,6.992 6.992,7.676 6.172,8.219C5.359,8.758 4.492,9.031 3.578,9.031C3.172,9.031 2.758,8.961 2.344,8.828C1.938,8.691 1.547,8.473 1.172,8.172C0.754,7.836 0.441,7.41 0.234,6.891C0.035,6.367 -0.039,5.844 0,5.312C0.008,5.039 0.082,4.723 0.219,4.359C0.352,4.004 0.539,3.691 0.781,3.422C1.02,3.148 1.312,3.016 1.656,3.016C1.969,3.016 2.219,3.117 2.406,3.328C2.602,3.547 2.703,3.789 2.703,4.062C2.703,4.332 2.645,4.531 2.531,4.656C2.426,4.781 2.316,4.898 2.203,5.016C2.098,5.141 2.047,5.344 2.047,5.625C2.047,6.082 2.148,6.41 2.359,6.609C2.578,6.805 2.836,6.914 3.141,6.938C3.453,6.957 3.758,6.93 4.062,6.859C4.375,6.785 4.617,6.719 4.797,6.656C5.535,6.188 6.078,5.57 6.422,4.812C6.773,4.051 7,3.223 7.094,2.328C7.195,1.43 7.25,0.566 7.25,-0.266C6.906,-0.172 6.562,-0.125 6.219,-0.125C5.594,-0.125 4.992,-0.258 4.422,-0.531C3.848,-0.812 3.352,-1.188 2.938,-1.656C2.52,-2.125 2.207,-2.656 2,-3.25C1.82,-3.781 1.734,-4.32 1.734,-4.875C1.734,-6.414 1.922,-7.664 2.297,-8.625C2.68,-9.582 3.207,-10.332 3.875,-10.875C4.383,-11.301 4.914,-11.582 5.469,-11.719C6.031,-11.852 6.547,-11.867 7.016,-11.766C7.047,-12.055 7.16,-12.281 7.359,-12.438C7.566,-12.602 7.797,-12.688 8.047,-12.688C8.223,-12.688 8.395,-12.641 8.562,-12.547C8.727,-12.461 8.863,-12.316 8.969,-12.109C9.039,-11.984 9.082,-11.836 9.094,-11.672C9.113,-11.516 9.125,-11.352 9.125,-11.188C9.125,-11.031 9.117,-10.863 9.109,-10.688C9.098,-10.52 9.094,-10.363 9.094,-10.219C9.113,-9.926 9.125,-9.629 9.125,-9.328C9.133,-9.023 9.141,-8.727 9.141,-8.438C9.16,-8 9.172,-7.445 9.172,-6.781C9.18,-6.125 9.191,-5.469 9.203,-4.812C9.223,-4.156 9.238,-3.609 9.25,-3.172Z" style="fill-rule:nonzero;"/>
                            </g>
                        </g>
                    </g>
                    <g transform="matrix(1.333333,0,0,1.333333,-780.741185,-325.635083)">
                        <g transform="matrix(1,0,0,1,272.119255,402.479629)">
                            <g>
                                <path d="M3.672,-0.969C3.672,-0.645 3.555,-0.398 3.328,-0.234C3.098,-0.078 2.836,0 2.547,0C2.254,-0.008 1.992,-0.109 1.766,-0.297C1.535,-0.484 1.414,-0.758 1.406,-1.125C1.363,-2.219 1.32,-3.312 1.281,-4.406C1.25,-5.508 1.211,-6.613 1.172,-7.719L1.094,-9.844C1.082,-10.133 1.191,-10.379 1.422,-10.578C1.648,-10.773 1.898,-10.875 2.172,-10.875C2.598,-10.875 2.891,-10.797 3.047,-10.641C3.211,-10.492 3.312,-10.285 3.344,-10.016C3.375,-9.754 3.395,-9.461 3.406,-9.141C3.582,-9.273 3.82,-9.422 4.125,-9.578C4.426,-9.742 4.742,-9.883 5.078,-10C5.41,-10.113 5.734,-10.172 6.047,-10.172C6.453,-10.172 6.742,-10.051 6.922,-9.812C7.109,-9.582 7.203,-9.332 7.203,-9.062C7.203,-8.789 7.102,-8.586 6.906,-8.453C6.719,-8.328 6.488,-8.227 6.219,-8.156C5.957,-8.082 5.723,-8.004 5.516,-7.922C5.141,-7.785 4.789,-7.594 4.469,-7.344C4.145,-7.102 3.848,-6.832 3.578,-6.531C3.523,-6.457 3.484,-6.348 3.453,-6.203C3.422,-6.066 3.406,-5.922 3.406,-5.766C3.406,-5.453 3.43,-5.125 3.484,-4.781C3.535,-4.438 3.566,-4.172 3.578,-3.984C3.598,-3.484 3.617,-2.977 3.641,-2.469C3.66,-1.969 3.672,-1.469 3.672,-0.969Z" style="fill-rule:nonzero;"/>
                            </g>
                        </g>
                    </g>
                    <g transform="matrix(1.333333,0,0,1.333333,-780.741185,-325.635083)">
                        <g transform="matrix(1,0,0,1,279.879893,402.479629)">
                            <g>
                                <path d="M4.641,0C4.004,0 3.395,-0.125 2.812,-0.375C2.238,-0.633 1.734,-1.004 1.297,-1.484C0.867,-1.961 0.566,-2.531 0.391,-3.188C0.273,-3.656 0.219,-4.129 0.219,-4.609C0.219,-5.348 0.332,-6.086 0.562,-6.828C0.801,-7.566 1.145,-8.234 1.594,-8.828C2.051,-9.422 2.602,-9.867 3.25,-10.172C3.57,-10.336 3.898,-10.453 4.234,-10.516C4.566,-10.586 4.898,-10.625 5.234,-10.625C5.609,-10.625 5.984,-10.582 6.359,-10.5C6.734,-10.414 7.098,-10.301 7.453,-10.156C7.742,-10.039 8.016,-9.895 8.266,-9.719C8.523,-9.539 8.754,-9.328 8.953,-9.078C9.035,-8.973 9.129,-8.801 9.234,-8.562C9.336,-8.332 9.426,-8.109 9.5,-7.891C9.582,-7.68 9.625,-7.555 9.625,-7.516C9.75,-7.016 9.812,-6.539 9.812,-6.094C9.812,-5.344 9.68,-4.594 9.422,-3.844C9.16,-3.094 8.789,-2.414 8.312,-1.812C7.844,-1.219 7.266,-0.758 6.578,-0.438C6.266,-0.289 5.945,-0.18 5.625,-0.109C5.301,-0.035 4.973,0 4.641,0Z" style="fill-rule:nonzero;"/>
                            </g>
                        </g>
                    </g>
                    <g transform="matrix(1.333333,0,0,1.333333,-780.741185,-325.635083)">
                        <g transform="matrix(1,0,0,1,290.23473,402.479629)">
                            <g>
                                <path d="M4.766,0.172C3.816,0.172 3.023,-0.16 2.391,-0.828C1.766,-1.492 1.359,-2.426 1.172,-3.625C1.117,-3.914 1.07,-4.301 1.031,-4.781C1,-5.258 0.977,-5.742 0.969,-6.234C0.957,-6.734 0.945,-7.176 0.938,-7.562C0.926,-7.945 0.922,-8.18 0.922,-8.266C0.922,-8.953 1.047,-9.469 1.297,-9.812C1.516,-10.102 1.82,-10.25 2.219,-10.25C2.508,-10.25 2.77,-10.16 3,-9.984C3.227,-9.816 3.367,-9.586 3.422,-9.297C3.441,-9.223 3.453,-9.145 3.453,-9.062C3.461,-8.988 3.469,-8.906 3.469,-8.812C3.469,-8.613 3.457,-8.41 3.438,-8.203C3.414,-7.992 3.398,-7.797 3.391,-7.609L3.391,-6.703C3.391,-6.41 3.395,-6.117 3.406,-5.828C3.414,-5.473 3.43,-5.055 3.453,-4.578C3.484,-4.109 3.562,-3.66 3.688,-3.234C3.82,-2.816 4.066,-2.508 4.422,-2.312C4.992,-2.289 5.461,-2.383 5.828,-2.594C6.203,-2.812 6.551,-3.141 6.875,-3.578C7.52,-4.473 7.844,-5.477 7.844,-6.594C7.844,-7.051 7.812,-7.379 7.75,-7.578C7.695,-7.773 7.633,-7.941 7.562,-8.078C7.5,-8.211 7.469,-8.406 7.469,-8.656C7.469,-8.895 7.551,-9.117 7.719,-9.328C7.969,-9.66 8.289,-9.828 8.688,-9.828C8.938,-9.828 9.164,-9.75 9.375,-9.594C9.582,-9.438 9.738,-9.227 9.844,-8.969C10.113,-8.312 10.25,-7.555 10.25,-6.703C10.25,-5.91 10.125,-5.109 9.875,-4.297C9.625,-3.484 9.258,-2.738 8.781,-2.062C8.301,-1.395 7.723,-0.852 7.047,-0.438C6.379,-0.031 5.617,0.172 4.766,0.172Z" style="fill-rule:nonzero;"/>
                            </g>
                        </g>
                    </g>
                    <g transform="matrix(1.333333,0,0,1.333333,-780.741185,-325.635083)">
                        <g transform="matrix(1,0,0,1,300.853389,402.479629)">
                            <g>
                                <path d="M3.188,0.266C2.801,0.266 2.531,0.133 2.375,-0.125C2.227,-0.395 2.141,-0.695 2.109,-1.031C2.078,-1.363 2.047,-1.648 2.016,-1.891C1.941,-2.68 1.863,-3.406 1.781,-4.062C1.707,-4.727 1.625,-5.395 1.531,-6.062C1.445,-6.727 1.352,-7.445 1.25,-8.219C1.238,-8.426 1.195,-8.672 1.125,-8.953C1.062,-9.242 1.031,-9.531 1.031,-9.812C1.031,-10.656 1.426,-11.078 2.219,-11.078C2.531,-11.078 2.758,-10.969 2.906,-10.75C3.051,-10.539 3.148,-10.289 3.203,-10C3.266,-9.707 3.312,-9.438 3.344,-9.188C3.914,-9.602 4.516,-9.953 5.141,-10.234C5.773,-10.516 6.438,-10.656 7.125,-10.656C7.656,-10.656 8.18,-10.555 8.703,-10.359C9.234,-10.16 9.695,-9.863 10.094,-9.469C10.488,-9.07 10.75,-8.566 10.875,-7.953C10.945,-7.68 10.988,-7.398 11,-7.109C11.02,-6.828 11.031,-6.539 11.031,-6.25C11.051,-5.133 11.062,-4.266 11.062,-3.641C11.07,-3.016 11.078,-2.547 11.078,-2.234C11.078,-1.922 11.066,-1.688 11.047,-1.531C11.023,-1.375 10.992,-1.207 10.953,-1.031C10.891,-0.801 10.758,-0.609 10.562,-0.453C10.363,-0.297 10.133,-0.219 9.875,-0.219C9.414,-0.219 9.082,-0.422 8.875,-0.828C8.789,-0.992 8.75,-1.227 8.75,-1.531L8.75,-2.562C8.758,-2.832 8.77,-3.102 8.781,-3.375C8.789,-3.656 8.797,-3.992 8.797,-4.391C8.797,-4.672 8.805,-4.957 8.828,-5.25C8.848,-5.539 8.859,-5.844 8.859,-6.156C8.859,-6.633 8.805,-7.035 8.703,-7.359C8.598,-7.68 8.469,-7.93 8.312,-8.109C8.145,-8.18 7.906,-8.273 7.594,-8.391C7.281,-8.516 7.039,-8.539 6.875,-8.469C6.57,-8.395 6.234,-8.273 5.859,-8.109C5.484,-7.953 5.125,-7.77 4.781,-7.562C4.445,-7.352 4.176,-7.145 3.969,-6.938C3.77,-6.738 3.676,-6.551 3.688,-6.375C3.852,-4.832 3.992,-3.645 4.109,-2.812C4.223,-1.977 4.281,-1.395 4.281,-1.062C4.281,-0.176 3.914,0.266 3.188,0.266Z" style="fill-rule:nonzero;"/>
                            </g>
                        </g>
                    </g>
                    <g transform="matrix(1.333333,0,0,1.333333,-780.741185,-325.635083)">
                        <g transform="matrix(1,0,0,1,312.417395,402.479629)">
                            <g>
                                <path d="M5.312,0C4.5,0 3.723,-0.191 2.984,-0.578C2.254,-0.973 1.664,-1.504 1.219,-2.172C0.77,-2.836 0.547,-3.57 0.547,-4.375C0.547,-4.781 0.613,-5.191 0.75,-5.609C1.008,-6.41 1.406,-7.102 1.938,-7.688C2.477,-8.281 3.094,-8.754 3.781,-9.109C4.469,-9.473 5.172,-9.707 5.891,-9.812C6.617,-9.926 7.297,-9.91 7.922,-9.766C7.941,-10.523 7.969,-11.281 8,-12.031C8.039,-12.789 8.086,-13.551 8.141,-14.312L8.141,-15.141C8.141,-15.453 8.16,-15.758 8.203,-16.062C8.242,-16.363 8.348,-16.613 8.516,-16.812C8.68,-17.008 8.938,-17.109 9.281,-17.109C9.707,-17.109 9.988,-16.922 10.125,-16.547C10.258,-16.172 10.328,-15.734 10.328,-15.234C10.328,-15.098 10.316,-14.906 10.297,-14.656C10.273,-14.414 10.242,-14.02 10.203,-13.469C10.172,-12.926 10.125,-12.156 10.062,-11.156C10.008,-10.156 9.945,-8.816 9.875,-7.141C9.852,-6.555 9.82,-5.973 9.781,-5.391C9.75,-4.816 9.734,-4.242 9.734,-3.672C9.734,-3.055 9.723,-2.594 9.703,-2.281C9.691,-1.977 9.66,-1.719 9.609,-1.5C9.547,-1.258 9.422,-1.062 9.234,-0.906C9.047,-0.758 8.828,-0.688 8.578,-0.688C8.453,-0.688 8.305,-0.723 8.141,-0.797C7.273,-0.266 6.332,0 5.312,0Z" style="fill-rule:nonzero;"/>
                            </g>
                        </g>
                    </g>
                </g>
            </g>
        </g>
    </g>
</svg>
