<?xml version="1.0" encoding="UTF-8" standalone="no"?>
<!DOCTYPE svg PUBLIC "-//W3C//DTD SVG 1.1//EN" "http://www.w3.org/Graphics/SVG/1.1/DTD/svg11.dtd">
<svg width="100%" height="100%" viewBox="0 0 28 21" version="1.1" xmlns="http://www.w3.org/2000/svg" xmlns:xlink="http://www.w3.org/1999/xlink" xml:space="preserve" xmlns:serif="http://www.serif.com/" style="fill-rule:evenodd;clip-rule:evenodd;stroke-linejoin:round;stroke-miterlimit:2;">
    <g transform="matrix(1,0,0,1,-519,-485)">
        <g id="Artboard6" transform="matrix(1,0,0,1,-0.258326,-0.057555)">
            <rect x="519.258" y="485.058" width="27.377" height="20.667" style="fill:none;"/>
            <clipPath id="_clip1">
                <rect x="519.258" y="485.058" width="27.377" height="20.667"/>
            </clipPath>
            <g clip-path="url(#_clip1)">
                <g transform="matrix(1.333333,0,0,1.333333,218.840808,-165.111101)">
                    <g transform="matrix(1,0,0,1,0.5,-0.5)">
                        <g transform="matrix(1,0,0,1,223.335008,503.669659)">
                            <g>
                                <path d="M10.969,0L1.672,0L1.672,-15.5L10.969,-15.5L10.969,-14.266L3.125,-14.266L3.125,-8.375L9.875,-8.375L9.875,-7.141L3.125,-7.141L3.125,-1.234L10.969,-1.234L10.969,0Z" style="fill-rule:nonzero;"/>
                            </g>
                        </g>
                    </g>
                    <g transform="matrix(1,0,0,1,0.5,-0.5)">
                        <g transform="matrix(1,0,0,1,235.539676,502.920044)">
                            <g>
                                <path d="M4.172,-13.953C6.047,-13.984 7.484,-13.742 8.484,-13.234C9.492,-12.734 10,-11.984 10,-10.984C10,-10.492 9.828,-10.035 9.484,-9.609C9.148,-9.191 8.719,-8.816 8.188,-8.484C7.664,-8.16 7.109,-7.875 6.516,-7.625C5.922,-7.375 5.352,-7.164 4.812,-7C4.27,-6.832 3.82,-6.711 3.469,-6.641C3.457,-6.055 3.422,-5.469 3.359,-4.875C3.305,-4.289 3.254,-3.711 3.203,-3.141C3.191,-2.773 3.188,-2.375 3.188,-1.938C3.195,-1.5 3.203,-1.16 3.203,-0.922C3.203,-0.586 3.094,-0.336 2.875,-0.172C2.656,-0.016 2.422,0.062 2.172,0.062C1.773,0.062 1.484,-0.07 1.297,-0.344C1.117,-0.625 1.031,-1.016 1.031,-1.516C1.031,-1.691 1.047,-1.973 1.078,-2.359C1.109,-2.754 1.141,-3.191 1.172,-3.672C1.211,-4.148 1.25,-4.617 1.281,-5.078C1.32,-5.535 1.348,-5.914 1.359,-6.219C1.391,-6.789 1.398,-7.414 1.391,-8.094C1.391,-8.781 1.375,-9.445 1.344,-10.094C1.344,-10.27 1.328,-10.52 1.297,-10.844C1.266,-11.164 1.234,-11.488 1.203,-11.812C1.18,-12.133 1.156,-12.391 1.125,-12.578C1.102,-12.766 1.094,-12.805 1.094,-12.703C1.113,-13.117 1.254,-13.41 1.516,-13.578C1.773,-13.742 2.133,-13.848 2.594,-13.891C3.062,-13.93 3.586,-13.953 4.172,-13.953ZM1.094,-12.703L1.094,-12.688L1.094,-12.703Z" style="fill-rule:nonzero;"/>
                            </g>
                        </g>
                    </g>
                </g>
            </g>
        </g>
    </g>
</svg>
