<svg xmlns="http://www.w3.org/2000/svg" viewBox="0 0 800 800" fill="none">
  <rect width="800" height="800" rx="160" fill="white" />
  <path
    d="M473 412c33 144 26 240-20 288h63c-9-107-12-203 23-288H473Z"
    fill="#E149C6"
  />
  <path
    d="M541 402c-37 102-39 188-6 258 18 37 30 69 36 96h67c-23-30-46-70-69-120-44-95-50-175-28-234H541Z"
    fill="#E149C6"
  />
  <path
    d="M412 494c15 46 20 83 17 112-4 39-18 73-44 102h54c19-32 28-67 26-106-1-36-11-75-30-118l-23 10Z"
    fill="#E149C6"
  />
  <path
    d="M464 493c11 56 15 101 13 136-2 31 2 57 11 79h22c-4-25-1-53 8-86 8-35 6-79-4-132l-50 3Z"
    fill="#E149C6"
  />
  <path
    d="M28 28h185c0 34 4 66 11 97-71-2-136 35-196 113V28Z"
    fill="#6A1C00"
  />
  <path
    d="M28 288c57-74 122-116 196-131 4 7 9 13 14 18-40 23-64 56-73 100l-17-3c3-48 26-86 68-114-71 17-133 60-188 130Z"
    fill="#6A1C00"
  />
  <path
    d="M246 197c9 8 18 16 26 24-27 20-43 48-49 85l-29-5c6-42 24-76 52-104Z"
    fill="#6A1C00"
  />
  <path
    d="M299 236c18 7 37 10 57 8-41 99-40 168-2 211-53 42-112 71-178 87L28 288c54-71 130-113 228-126 12 13 27 24 43 34Z"
    fill="#6A1C00"
  />
  <path
    d="M175 560c81-23 153-58 217-105 8 8 16 16 24 24-67 39-140 77-221 112l-20-31Z"
    fill="#6A1C00"
  />
  <path
    d="M507 161c55 0 96 29 123 87 7 16 14 43 19 83L492 441c-19-12-33-28-42-49-11-27-16-58-16-93 0-46 6-78 19-96 15-28 33-42 54-42Z"
    fill="#6A1C00"
  />
</svg>
